PathFileType	4	(X/Y/Z)	Patient4_TMGait_0pt4_03_left_27.trc.trc
DataRate	CameraRate	NumFrames	NumMarkers	Units	OrigDataRate	OrigDataStartFrame	OrigNumFrames
76.086956521739	76.086956521739	4	33	mm	76.086956521739	124	       141
Frame#	Time	Sacral			L.Shoulder			Chest			R.Shoulder			Neck			R.ASIS			L.ASIS			R.Thigh.Superior			R.Thigh.Lateral			R.Thigh.Inferior			R.Patella			L.Thigh.Superior			L.Thigh.Lateral			L.Thigh.Inferior			L.Patella			L.Shank.Superior			L.Shank.Lateral			L.Shank.Inferior			R.Shank.Superior			R.Shank.Lateral			R.Shank.Inferior			R.Heel			R.Midfoot.Superior			R.Midfoot.Lateral			R.Toe			L.Heel			L.Midfoot.Lateral			L.Midfoot.Superior			L.Toe			L.Elbow			L.Wrist			R.Elbow			R.Wrist			
		X1	Y1	Z1	X2	Y2	Z2	X3	Y3	Z3	X4	Y4	Z4	X5	Y5	Z5	X6	Y6	Z6	X7	Y7	Z7	X8	Y8	Z8	X9	Y9	Z9	X10	Y10	Z10	X11	Y11	Z11	X12	Y12	Z12	X13	Y13	Z13	X14	Y14	Z14	X15	Y15	Z15	X16	Y16	Z16	X17	Y17	Z17	X18	Y18	Z18	X19	Y19	Z19	X20	Y20	Z20	X21	Y21	Z21	X22	Y22	Z22	X23	Y23	Z23	X24	Y24	Z24	X25	Y25	Z25	X26	Y26	Z26	X27	Y27	Z27	X28	Y28	Z28	X29	Y29	Z29	X30	Y30	Z30	X31	Y31	Z31	X32	Y32	Z32	X33	Y33	Z33	

124	37.176571428571	852.570991224607	1001.426080808875	481.764646902179	1005.753433693031	1424.613757873402	282.273282525038	1131.335237849507	1356.370166518939	426.345654547301	1076.616867846178	1430.234649193461	611.420671010542	1015.205235123908	1488.121727869238	439.433266201097	1089.009437322761	932.207520921953	576.959069743777	1050.888766369926	953.224242568375	303.773236866163	1084.103381706414	720.420359498984	551.365317725958	981.549465220434	627.444780886106	618.435626091499	1038.707850633195	561.046332824137	537.412690151675	1021.376435410156	476.390578143540	543.828237677202	1123.910713189234	766.560486435760	328.569754886663	1066.793682486154	636.647468787814	256.188889359787	1172.710262782056	577.867388942438	311.765375241017	1194.415505587947	509.926170672395	309.967248790871	1172.876897683888	436.827193068676	299.257267183808	1094.837418497552	313.291311416594	249.741759199850	1175.075359391966	207.018700429662	300.901277415886	981.629676146522	393.427170128463	552.248171965677	899.777392968441	299.865727182165	617.729452976182	926.943362960126	200.292314576100	553.510466859241	777.817440485729	42.217928228085	526.587790993901	948.591115712123	95.258241551517	561.879984093694	860.638598434756	36.215727723295	601.131868537490	1068.945843839987	42.661944761174	591.439100717826	1077.803819580003	39.524473856893	340.752653017993	1148.508212755537	38.180531349097	257.823873251823	1228.418452458412	105.467215364943	279.550731457705	1357.120913508483	61.959458672154	246.299310270788	878.451259815567	1089.057400820591	199.407281951892	867.647488690538	828.068786224390	187.112169542652	1160.703776188908	1092.452463873932	721.410281546529	1392.312472665911	1076.713378272661	622.919634908595	
125	37.189714285714	853.893107384373	1000.230854116490	479.083192955592	1005.782853807792	1423.252356425207	278.651543915799	1131.654687675773	1355.762650637422	422.833948507446	1076.700187787910	1429.730761980560	607.826175423121	1015.174136200614	1487.170036968900	435.634687736427	1090.497562496895	931.395232592159	574.487907757342	1052.516319638379	952.064487617171	301.452998307763	1085.498181025276	719.217730606892	549.236521203058	982.638016713059	626.403939413577	616.369664995857	1039.401706840318	559.734975877271	535.280711109283	1021.507551365813	474.589912381262	541.701604714856	1126.118350207899	765.091969109277	327.580542187244	1068.162839807385	635.416093188121	255.915492844504	1173.497237359887	576.361150255188	312.230080957309	1193.878802548448	507.413225204117	310.900135546522	1171.697065126922	434.001813247690	299.914365549045	1091.979209459601	311.534769143862	250.144141600258	1169.773283655055	204.137631723116	302.537083790083	980.622756874728	392.001644814652	550.523118689115	897.785711291063	299.661721016080	616.566010283409	923.274828168160	199.577028957467	552.689349147512	772.549665107300	42.391605200860	526.622835964992	943.457196155853	95.231709153331	561.746820246508	855.405573213919	36.214939050867	601.116873481742	1063.736740073374	42.461331075449	591.487592402060	1068.849347148720	38.908735243686	342.217157527875	1139.694787268194	36.813075675902	259.297959583530	1220.998904048061	102.144152866434	281.963503229856	1349.190845845855	56.168341954086	248.623399401569	878.651362595167	1087.477942795226	196.757808542882	866.963853774727	826.546290958245	184.736373314646	1159.867169620457	1091.475544724244	717.628178354997	1390.680384733946	1075.924062525133	617.282925328425	
126	37.202857142857	855.184038908630	999.142510896511	476.445685391798	1005.909791191839	1421.975749827298	274.934561765309	1132.043019970176	1355.242252354130	419.257044868378	1076.865213488259	1429.399534361821	604.136346101773	1015.218810602855	1486.355033367174	431.713014700064	1092.004872970939	930.699436124351	571.906898264485	1054.014923102840	951.111181593573	299.062504765848	1087.207753765412	718.149392518836	546.900375199973	984.291535361750	625.323035948143	614.142382739173	1040.726532117263	558.458739512660	532.944611095913	1022.313235676060	472.674813190687	539.421327469295	1128.283956101957	763.931864507615	326.521075278102	1069.772253372411	634.658925667636	255.219650117972	1174.426988084592	575.242767827252	312.364244281011	1193.544116042291	505.387216541825	311.381742795119	1170.878396865611	431.700763881256	300.123583494211	1089.843119357289	310.211401268591	249.819486230974	1165.177879259619	201.836675948512	303.597647211796	980.136899922656	390.516293331848	548.676512490035	896.200185823315	299.543280328352	615.331512132813	919.840214752488	198.914303679591	551.823372272978	767.307895764639	42.815530213330	526.680142908923	938.429763310916	95.238412836649	561.608924273222	850.225757628282	36.318009568472	601.100638030768	1058.591733449066	42.158662745600	591.543861103691	1060.952433581497	38.496319763011	343.051407734404	1131.953318660431	35.906140894938	260.168007331077	1214.294203988925	99.689046517640	283.721294953127	1342.128938275701	51.845691738165	250.347965427103	879.621666240280	1085.732969548237	193.738576996480	867.570223367420	824.816549745969	181.941228267505	1158.576455022647	1090.573144818493	713.959650683266	1388.610780549166	1074.249506721088	611.796052852537	
127	37.216000000000	856.428752187063	998.201419774285	473.860752696740	1006.108268817338	1420.840765799342	271.173853793124	1132.485082209859	1354.839306370368	415.644844743350	1077.125743701460	1429.274783345330	600.387009522891	1015.334443629364	1485.715436020853	427.723916745045	1093.500798279158	930.160730271619	569.205136732750	1055.343587813840	950.408202940467	296.561826749435	1089.144264552673	717.270309613037	544.356150621319	986.426124174427	624.268657565682	611.769238348679	1042.633509764945	557.274043092045	530.455213391599	1023.780795621546	470.696161766641	537.090690507226	1130.346538937923	763.148708551017	325.269539541605	1071.549118246138	634.344384950644	254.073956336057	1175.463855330639	574.507586111851	312.034961796997	1193.418486009984	503.865686469392	311.320956265990	1170.400869804902	429.921960534316	299.877873314171	1088.360069833849	309.313516688550	248.856924658900	1161.249211473459	200.107307519303	304.121072472847	980.148084008375	389.041242284225	546.780438876956	894.980378792084	299.582669076061	614.058641675523	916.650059683626	198.380793797074	550.958638133973	762.109820817800	43.598549899681	526.767164111882	933.543106328648	95.298206275536	561.490497389210	845.111071606162	36.582814838215	601.088950602464	1053.514332125488	41.754496443947	591.607721637012	1054.107683289453	38.268658960386	343.374893827060	1125.253412226037	35.398538900458	260.535356233647	1208.289471695945	98.059600760302	284.850476810410	1335.905526502878	48.930904569662	251.473759823195	881.321023532366	1083.898909262236	190.372897302365	869.493506825296	822.948818965214	178.744684510846	1156.844613953545	1089.789294825403	710.403240227042	1386.110660935209	1071.692449303971	606.479483033440	
